<svg width="18" height="16" viewBox="0 0 18 16" fill="none" xmlns="http://www.w3.org/2000/svg">
<path d="M14.8337 3.41665H12.3337V2.58331C12.3337 1.92027 12.0703 1.28439 11.6014 0.815546C11.1326 0.346705 10.4967 0.083313 9.83366 0.083313H8.16699C7.50395 0.083313 6.86807 0.346705 6.39923 0.815546C5.93038 1.28439 5.66699 1.92027 5.66699 2.58331V3.41665H3.16699C2.50395 3.41665 1.86807 3.68004 1.39923 4.14888C0.930384 4.61772 0.666992 5.2536 0.666992 5.91665V13.4166C0.666992 14.0797 0.930384 14.7156 1.39923 15.1844C1.86807 15.6533 2.50395 15.9166 3.16699 15.9166H14.8337C15.4967 15.9166 16.1326 15.6533 16.6014 15.1844C17.0703 14.7156 17.3337 14.0797 17.3337 13.4166V5.91665C17.3337 5.2536 17.0703 4.61772 16.6014 4.14888C16.1326 3.68004 15.4967 3.41665 14.8337 3.41665ZM7.33366 2.58331C7.33366 2.3623 7.42146 2.15034 7.57774 1.99406C7.73402 1.83778 7.94598 1.74998 8.16699 1.74998H9.83366C10.0547 1.74998 10.2666 1.83778 10.4229 1.99406C10.5792 2.15034 10.667 2.3623 10.667 2.58331V3.41665H7.33366V2.58331ZM15.667 13.4166C15.667 13.6377 15.5792 13.8496 15.4229 14.0059C15.2666 14.1622 15.0547 14.25 14.8337 14.25H3.16699C2.94598 14.25 2.73402 14.1622 2.57774 14.0059C2.42146 13.8496 2.33366 13.6377 2.33366 13.4166V9.20831H4.83366V10.0833C4.83366 10.3043 4.92146 10.5163 5.07774 10.6726C5.23402 10.8288 5.44598 10.9166 5.66699 10.9166C5.88801 10.9166 6.09997 10.8288 6.25625 10.6726C6.41253 10.5163 6.50033 10.3043 6.50033 10.0833V9.20831H11.5003V10.0833C11.5003 10.3043 11.5881 10.5163 11.7444 10.6726C11.9007 10.8288 12.1126 10.9166 12.3337 10.9166C12.5547 10.9166 12.7666 10.8288 12.9229 10.6726C13.0792 10.5163 13.167 10.3043 13.167 10.0833V9.20831H15.667V13.4166ZM15.667 7.58331H2.33366V5.91665C2.33366 5.69563 2.42146 5.48367 2.57774 5.32739C2.73402 5.17111 2.94598 5.08331 3.16699 5.08331H14.8337C15.0547 5.08331 15.2666 5.17111 15.4229 5.32739C15.5792 5.48367 15.667 5.69563 15.667 5.91665V7.58331Z" fill="white"/>
</svg>
