<svg width="30" height="30" viewBox="0 0 30 30" fill="none" xmlns="http://www.w3.org/2000/svg">
<path d="M15 30C23.2843 30 30 23.2843 30 15C30 6.71573 23.2843 0 15 0C6.71573 0 0 6.71573 0 15C0 23.2843 6.71573 30 15 30Z" fill="#073763"/>
<path fill-rule="evenodd" clip-rule="evenodd" d="M17.3051 16.4726C15.7132 16.4726 14.6898 17.2238 13.4959 18.1141L11.1649 19.8113C10.9091 20.0061 10.6248 20.2009 10.369 20.3956C8.80554 21.5642 9.31722 20.3956 9.80047 19.5053C9.85733 19.394 9.88575 19.394 9.94261 19.2827C10.3122 18.615 10.5964 17.9472 10.9091 17.2516C11.5061 15.8327 12.302 14.4137 12.8137 13.1617C12.8705 13.0504 12.899 13.0225 12.9274 12.9391C13.3822 11.9931 13.8655 10.7967 14.2634 9.93419C14.4056 9.65596 14.5761 9.32208 14.7183 9.04385C15.3436 7.76399 15.6279 8.79344 15.9122 9.3499C16.2249 9.93419 16.5091 10.6298 16.7934 11.1862C16.8787 11.3253 16.9355 11.5201 17.0208 11.6592L19.3234 16.6952C18.7833 16.723 18.5558 16.4726 17.3051 16.4726ZM9.03296 18.1698C8.57813 19.1436 7.29894 20.8964 8.63499 21.8981C9.11824 22.2598 9.8289 22.2319 10.369 22.0094L10.8807 21.7311C10.9375 21.7033 10.9375 21.7033 10.9944 21.6755L12.2167 20.6739C13.4391 19.7557 14.0645 19.2549 15.3152 18.4202C15.7985 18.1141 15.8838 18.0863 16.3954 17.8637C17.6178 17.3351 19.0391 17.6968 19.9203 18.6428C20.5457 19.3105 20.83 19.7001 21.1711 20.646C21.967 22.7884 23.1609 21.9815 22.6777 20.7852L21.6828 18.6706C21.5406 18.4202 21.4553 18.1976 21.3132 17.9472C21.2564 17.8081 21.1995 17.6968 21.1427 17.5855C21.0858 17.4464 21.029 17.3351 20.9721 17.196C20.9437 17.1403 20.9437 17.0847 20.9152 17.029L17.2482 9.29426C17.0777 8.87691 16.8218 8.20916 16.566 7.87529C16.4523 7.68052 16.2249 7.43012 16.0259 7.34665C15.4005 7.0406 14.5193 7.12406 14.0076 7.73617C13.9792 7.76399 13.7802 7.98658 13.7802 8.0144L13.1264 9.40555C13.0127 9.68378 12.899 9.87854 12.7853 10.1568C12.4157 10.8802 12.1599 11.6314 11.7619 12.3548L9.03296 18.1698Z" fill="#F2F3F9"/>
</svg>
