<svg width="18" height="15" viewBox="0 0 18 15" fill="none" xmlns="http://www.w3.org/2000/svg">
<path d="M17.2966 4.94195L13.3591 0.441953C13.3064 0.381824 13.2416 0.333604 13.1688 0.300505C13.0961 0.267406 13.0171 0.250189 12.9372 0.25H5.06221C4.98229 0.250189 4.90333 0.267406 4.83058 0.300505C4.75784 0.333604 4.69298 0.381824 4.64033 0.441953L0.702835 4.94195C0.610976 5.04683 0.561339 5.18208 0.563547 5.32148C0.565756 5.46088 0.619653 5.59449 0.714788 5.69641L8.58979 14.1339C8.64242 14.1903 8.7061 14.2353 8.77686 14.2661C8.84762 14.2968 8.92396 14.3127 9.00112 14.3127C9.07828 14.3127 9.15461 14.2968 9.22537 14.2661C9.29614 14.2353 9.35981 14.1903 9.41244 14.1339L17.2874 5.69641C17.3822 5.59414 17.4356 5.46034 17.4373 5.32094C17.439 5.18154 17.3888 5.04648 17.2966 4.94195ZM15.6351 4.75H12.656L10.1247 1.375H12.682L15.6351 4.75ZM5.24362 5.875L7.36213 11.1716L2.41916 5.875H5.24362ZM11.5436 5.875L8.99971 12.2355L6.4558 5.875H11.5436ZM6.74971 4.75L8.99971 1.74977L11.2497 4.75H6.74971ZM12.7558 5.875H15.5803L10.6373 11.1716L12.7558 5.875ZM5.31744 1.375H7.87471L5.34346 4.75H2.36432L5.31744 1.375Z" fill="#073763"/>
</svg>
