<svg width="16" height="16" viewBox="0 0 16 16" fill="none" xmlns="http://www.w3.org/2000/svg">
<path d="M10.1075 8.21C10.5822 7.70018 10.8497 7.03158 10.8575 6.335C10.8575 5.58311 10.5588 4.86202 10.0271 4.33035C9.49548 3.79869 8.77439 3.5 8.0225 3.5C7.27061 3.5 6.54952 3.79869 6.01785 4.33035C5.48619 4.86202 5.1875 5.58311 5.1875 6.335C5.19533 7.03158 5.46277 7.70018 5.9375 8.21C5.27649 8.53915 4.70767 9.02745 4.28219 9.63098C3.85671 10.2345 3.58792 10.9343 3.5 11.6675C3.47812 11.8664 3.53615 12.0659 3.66133 12.222C3.78651 12.3781 3.96859 12.4781 4.1675 12.5C4.36641 12.5219 4.56587 12.4638 4.72199 12.3387C4.87812 12.2135 4.97812 12.0314 5 11.8325C5.0895 11.1059 5.44163 10.437 5.99006 9.95199C6.5385 9.46696 7.24536 9.19923 7.9775 9.19923C8.70964 9.19923 9.4165 9.46696 9.96494 9.95199C10.5134 10.437 10.8655 11.1059 10.955 11.8325C10.9759 12.0248 11.0702 12.2016 11.2184 12.326C11.3665 12.4504 11.557 12.5127 11.75 12.5H11.8325C12.0291 12.4774 12.2088 12.378 12.3324 12.2234C12.456 12.0689 12.5136 11.8718 12.4925 11.675C12.4111 10.9457 12.1508 10.2478 11.7347 9.64328C11.3186 9.03879 10.7597 8.54645 10.1075 8.21ZM8 7.67C7.73596 7.67 7.47785 7.5917 7.25831 7.44501C7.03877 7.29832 6.86766 7.08982 6.76662 6.84588C6.66558 6.60194 6.63914 6.33352 6.69065 6.07455C6.74216 5.81559 6.86931 5.57772 7.05601 5.39101C7.24272 5.20431 7.48059 5.07716 7.73955 5.02565C7.99852 4.97414 8.26694 5.00058 8.51088 5.10162C8.75482 5.20266 8.96332 5.37377 9.11001 5.59331C9.2567 5.81285 9.335 6.07096 9.335 6.335C9.335 6.68906 9.19435 7.02863 8.94399 7.27899C8.69363 7.52935 8.35406 7.67 8 7.67ZM13.25 0.5H2.75C2.15326 0.5 1.58097 0.737053 1.15901 1.15901C0.737053 1.58097 0.5 2.15326 0.5 2.75V13.25C0.5 13.8467 0.737053 14.419 1.15901 14.841C1.58097 15.2629 2.15326 15.5 2.75 15.5H13.25C13.8467 15.5 14.419 15.2629 14.841 14.841C15.2629 14.419 15.5 13.8467 15.5 13.25V2.75C15.5 2.15326 15.2629 1.58097 14.841 1.15901C14.419 0.737053 13.8467 0.5 13.25 0.5ZM14 13.25C14 13.4489 13.921 13.6397 13.7803 13.7803C13.6397 13.921 13.4489 14 13.25 14H2.75C2.55109 14 2.36032 13.921 2.21967 13.7803C2.07902 13.6397 2 13.4489 2 13.25V2.75C2 2.55109 2.07902 2.36032 2.21967 2.21967C2.36032 2.07902 2.55109 2 2.75 2H13.25C13.4489 2 13.6397 2.07902 13.7803 2.21967C13.921 2.36032 14 2.55109 14 2.75V13.25Z" fill="#073763"/>
</svg>
