<svg width="24" height="20" viewBox="0 0 24 20" fill="none" xmlns="http://www.w3.org/2000/svg">
<path d="M2.30634 3.34063C3.94317 1.56613 6.42001 0.666626 9.66684 0.666626H10.8335V3.95546L9.89551 4.14329C8.29717 4.46296 7.18534 5.09179 6.59034 6.01463C6.27988 6.51178 6.10381 7.08101 6.07934 7.66663H9.66684C9.97626 7.66663 10.273 7.78954 10.4918 8.00833C10.7106 8.22713 10.8335 8.52387 10.8335 8.83329V17C10.8335 18.2868 9.78701 19.3333 8.50017 19.3333H1.50017C1.19076 19.3333 0.894009 19.2104 0.675216 18.9916C0.456424 18.7728 0.333508 18.476 0.333508 18.1666V12.3333L0.337008 8.92779C0.326508 8.79829 0.104841 5.72996 2.30634 3.34063ZM21.3335 19.3333H14.3335C14.0241 19.3333 13.7273 19.2104 13.5085 18.9916C13.2898 18.7728 13.1668 18.476 13.1668 18.1666V12.3333L13.1703 8.92779C13.1598 8.79829 12.9382 5.72996 15.1397 3.34063C16.7765 1.56613 19.2533 0.666626 22.5002 0.666626H23.6668V3.95546L22.7288 4.14329C21.1305 4.46296 20.0187 5.09179 19.4237 6.01463C19.1132 6.51178 18.9371 7.08101 18.9127 7.66663H22.5002C22.8096 7.66663 23.1063 7.78954 23.3251 8.00833C23.5439 8.22713 23.6668 8.52387 23.6668 8.83329V17C23.6668 18.2868 22.6203 19.3333 21.3335 19.3333Z" fill="white"/>
</svg>
